<svg width="74" height="89" viewBox="0 0 74 89" fill="none" xmlns="http://www.w3.org/2000/svg">
<g clip-path="url(#clip0_231_2909)">
<path d="M15.074 71.9321C13.0216 71.9321 13.0216 68.8195 15.074 68.8195H33.0033C32.9684 69.3328 32.9492 69.8513 32.9492 70.375C32.9492 70.8987 32.9684 71.4171 33.0033 71.9321H15.074ZM21.2366 42.8611H18.2382V46.3338H13.6272V31.9644H20.891C24.1966 31.9644 25.8494 33.7338 25.8494 37.2744C25.8494 39.2213 25.4183 40.6619 24.5579 41.5962C24.235 41.9494 23.7882 42.2486 23.221 42.494C22.652 42.7393 21.9906 42.8611 21.2366 42.8611ZM18.2382 35.6424V39.183H19.2993C19.8526 39.183 20.2575 39.1256 20.5106 39.0108C20.7636 38.896 20.891 38.6315 20.891 38.2174V36.6081C20.891 36.194 20.7636 35.9295 20.5106 35.8147C20.2575 35.6999 19.8526 35.6424 19.2993 35.6424H18.2382ZM27.579 46.3338V31.9644H34.0365C36.6352 31.9644 38.4189 32.5159 39.3876 33.619C40.3562 34.7221 40.8396 36.5663 40.8396 39.1482C40.8396 41.7319 40.3562 43.5744 39.3876 44.6775C38.4189 45.7805 36.6352 46.3338 34.0365 46.3338H27.579ZM34.1063 35.6424H32.1917V42.654H34.1063C34.7364 42.654 35.1936 42.5827 35.4781 42.4365C35.7626 42.2904 35.904 41.9581 35.904 41.4361V36.8603C35.904 36.3401 35.7626 36.0061 35.4781 35.8617C35.1936 35.7155 34.7364 35.6424 34.1063 35.6424ZM51.334 40.9994H47.4124V46.3338H42.7996V31.9644H52.2555L51.6796 35.6424H47.4124V37.5737H51.334V40.9994ZM46.3914 4.22086V9.28381C46.3914 20.7076 49.0634 21.3705 58.4478 21.3705H62.2926L46.3914 4.22086ZM62.8546 24.3891H59.1058C48.456 24.3891 43.3633 23.6775 43.3633 9.37776V3.01863H9.9167C6.12943 3.01863 3.02807 6.11207 3.02807 9.88579V55.9551H38.2566C37.4468 56.9068 36.7155 57.9281 36.0733 59.0068H3.02807V74.6358C3.02807 78.3974 6.1434 81.503 9.9167 81.503H35.9284C36.5445 82.5678 37.2478 83.5769 38.0262 84.5199H9.9167C4.47316 84.5199 0 80.0624 0 74.6358V9.88579C0 4.4453 4.4592 6.54005e-08 9.9167 6.54005e-08H45.9271C46.1616 -6.87108e-05 46.3928 0.054108 46.6027 0.158266C46.8126 0.262424 46.9953 0.41372 47.1366 0.600246L65.4743 20.3788C65.8565 20.7911 65.8827 21.1896 65.8827 21.6872V50.7182C64.9141 50.1997 63.9018 49.7508 62.8546 49.3768V24.3891Z" fill="white"/>
<path fill-rule="evenodd" clip-rule="evenodd" d="M55.3168 51.7517C65.6349 51.7517 74.0001 60.0908 74.0001 70.3767C74.0001 80.6609 65.6349 89 55.3168 89C44.9987 89 36.6335 80.6609 36.6335 70.3767C36.6335 60.0908 44.9987 51.7517 55.3168 51.7517Z" fill="white"/>
<path d="M58.9732 62.0324L58.3152 70.3402L61.3433 69.2841C63.3451 68.5186 65.4045 69.9313 63.853 71.6886C61.9646 73.8547 59.0953 76.8298 57.008 78.8115C55.7112 80.1025 54.9608 80.1146 53.6605 78.8219C51.3498 76.5601 49.0809 74.0478 46.8225 71.7112C45.2081 69.9609 47.2239 68.4838 49.3148 69.2841L52.3097 70.3298C52.0915 67.4973 51.8175 64.7901 51.6517 61.9611C51.6517 61.4409 52.088 61.0233 52.5976 60.9851C54.397 60.9851 56.2348 60.9433 58.029 60.9851C58.5386 61.0233 58.9749 61.4409 58.9749 61.9611L58.9732 62.0324Z" fill="#FF0101"/>
</g>
<defs>
<clipPath id="clip0_231_2909">
<rect width="74" height="89" fill="white"/>
</clipPath>
</defs>
</svg>