<svg width="15" height="18" viewBox="0 0 15 18" fill="none" xmlns="http://www.w3.org/2000/svg">
<path d="M2.1967 2.29725C5.12562 -0.765751 9.87439 -0.765751 12.8033 2.29725C15.7322 5.36025 15.7322 10.3264 12.8033 13.3894L11.7809 14.4468C11.0273 15.2202 10.0496 16.2147 8.84724 17.4303C8.09597 18.19 6.90404 18.1899 6.15286 17.4301L3.14579 14.3712C2.76786 13.9831 2.45152 13.6558 2.1967 13.3894C-0.732232 10.3264 -0.732232 5.36025 2.1967 2.29725ZM11.8897 3.25267C9.46534 0.71732 5.53465 0.71732 3.11029 3.25267C0.685922 5.788 0.685922 9.89863 3.11029 12.4339L4.39117 13.7558C5.09654 14.4777 5.98326 15.3788 7.05107 16.4589C7.30147 16.7121 7.69872 16.7122 7.9492 16.459L10.8734 13.4851C11.2773 13.0704 11.6161 12.72 11.8897 12.4339C14.314 9.89863 14.314 5.788 11.8897 3.25267ZM7.50001 5.38749C8.92786 5.38749 10.0853 6.59799 10.0853 8.09122C10.0853 9.58444 8.92786 10.7949 7.50001 10.7949C6.07216 10.7949 4.91462 9.58444 4.91462 8.09122C4.91462 6.59799 6.07216 5.38749 7.50001 5.38749ZM7.50001 6.73865C6.78569 6.73865 6.20661 7.34421 6.20661 8.09122C6.20661 8.83823 6.78569 9.44374 7.50001 9.44374C8.21432 9.44374 8.79332 8.83823 8.79332 8.09122C8.79332 7.34421 8.21432 6.73865 7.50001 6.73865Z" fill="#FF001B"/>
</svg>